#Comment line ignore any data following # character 
#Hierarchical Translation and Rotation (.htr) file 
[Header]	
#Header keywords are followed by a single value 
FileType HTR		#Single word string
DataType HTRS		#Translation followed by rotation and scale data
FileVersion 1		#integer
NumSegments 84		#integer
NumFrames 2		#integer
DataFrameRate 30		#integer, data frame rate in this file
EulerRotationOrder ZYX
CalibrationUnits mm
RotationUnits Degrees
GlobalAxisofGravity Y
BoneLengthAxis Y
ScaleFactor 1.00
[SegmentNames&Hierarchy]
#CHILD	PARENT
MASTER GLOBAL
root MASTER
chest root
L_mid_tent01 root
R_mid_tent01 root
spine01 root
Bip01_Neck chest
L_humerus chest
R_humerus chest
weapon_bone chest
Bip01_Head Bip01_Neck
eye_left_bone Bip01_Head
eye_right_bone Bip01_Head
L_forearm L_humerus
L_front_hand L_forearm
L_weapon_bone L_forearm
L_front_hand01_01 L_front_hand
L_front_hand02_01 L_front_hand
L_front_hand03_01 L_front_hand
L_front_hand01_02 L_front_hand01_01
L_front_hand02_02 L_front_hand02_01
L_front_hand03_02 L_front_hand03_01
R_forearm R_humerus
R_front_hand R_forearm
R_weapon_bone R_forearm
R_front_hand01_01 R_front_hand
R_front_hand02_01 R_front_hand
R_front_hand03_01 R_front_hand
R_front_hand01_02 R_front_hand01_01
R_front_hand02_02 R_front_hand02_01
R_front_hand03_02 R_front_hand03_01
null_rope01_connect L_mid_tent01
Rope1_Seg01 null_rope01_connect
Rope1_Seg02 Rope1_Seg01
Rope1_Seg03 Rope1_Seg02
Rope1_Seg04 Rope1_Seg03
Rope1_Seg05 Rope1_Seg04
Rope1_Seg06 Rope1_Seg05
Rope1_Seg07 Rope1_Seg06
Rope1_Seg09 Rope1_Seg07
L_mid_hand01 Rope1_Seg09
L_mid_hand02 Rope1_Seg09
L_mid_hand03 Rope1_Seg09
null_rope02_connect R_mid_tent01
Rope2_Seg01 null_rope02_connect
Rope2_Seg02 Rope2_Seg01
Rope2_Seg03 Rope2_Seg02
Rope2_Seg04 Rope2_Seg03
Rope2_Seg05 Rope2_Seg04
Rope2_Seg06 Rope2_Seg05
Rope2_Seg07 Rope2_Seg06
Rope2_Seg09 Rope2_Seg07
R_mid_hand01 Rope2_Seg09
R_mid_hand02 Rope2_Seg09
R_mid_hand03 Rope2_Seg09
spine02 spine01
spine03 spine02
pelvis spine03
null_rope03_connect pelvis
null_rope04_connect pelvis
Rope3_Seg01 null_rope03_connect
Rope3_Seg02 Rope3_Seg01
Rope3_Seg03 Rope3_Seg02
Rope3_Seg04 Rope3_Seg03
Rope3_Seg05 Rope3_Seg04
Rope3_Seg06 Rope3_Seg05
Rope3_Seg07 Rope3_Seg06
Rope3_Seg08 Rope3_Seg07
Rope3_Seg09 Rope3_Seg08
R_rear_hand01 Rope3_Seg09
R_rear_hand02 Rope3_Seg09
R_rear_hand03 Rope3_Seg09
Rope4_Seg01 null_rope04_connect
Rope4_Seg02 Rope4_Seg01
Rope4_Seg03 Rope4_Seg02
Rope4_Seg04 Rope4_Seg03
Rope4_Seg05 Rope4_Seg04
Rope4_Seg06 Rope4_Seg05
Rope4_Seg07 Rope4_Seg06
Rope4_Seg08 Rope4_Seg07
Rope4_Seg09 Rope4_Seg08
L_rear_hand01 Rope4_Seg09
L_rear_hand02 Rope4_Seg09
L_rear_hand03 Rope4_Seg09
[BasePosition]
#SegmentName Tx, Ty, Tz, Rx, Ry, Rz, BoneLength
MASTER 0.000000 0.000000 0.000000 -90.000000 0.000000 0.000000 10.000000 
root 0.000000 0.000000 0.000000 0.000000 0.000000 0.000000 10.000000 
chest 0.000000 0.000000 0.000000 0.000000 0.000000 0.000000 10.000000 
L_mid_tent01 0.000000 0.000000 0.000000 0.000000 0.000000 0.000000 10.000000 
R_mid_tent01 0.000000 0.000000 0.000000 0.000000 0.000000 0.000000 10.000000 
spine01 0.000000 0.000000 0.000000 0.000000 0.000000 0.000000 10.000000 
Bip01_Neck 0.000000 0.000000 0.000000 0.000000 0.000000 0.000000 10.000000 
L_humerus 0.000000 0.000000 0.000000 0.000000 0.000000 0.000000 10.000000 
R_humerus 0.000000 0.000000 0.000000 0.000000 0.000000 0.000000 10.000000 
weapon_bone 0.000000 0.000000 0.000000 0.000000 0.000000 0.000000 10.000000 
Bip01_Head 0.000000 0.000000 0.000000 0.000000 0.000000 0.000000 10.000000 
eye_left_bone 0.000000 0.000000 0.000000 0.000000 0.000000 0.000000 10.000000 
eye_right_bone 0.000000 0.000000 0.000000 0.000000 0.000000 0.000000 10.000000 
L_forearm 0.000000 0.000000 0.000000 0.000000 0.000000 0.000000 10.000000 
L_front_hand 0.000000 0.000000 0.000000 0.000000 0.000000 0.000000 10.000000 
L_weapon_bone 0.000000 0.000000 0.000000 0.000000 0.000000 0.000000 10.000000 
L_front_hand01_01 0.000000 0.000000 0.000000 0.000000 0.000000 0.000000 10.000000 
L_front_hand02_01 0.000000 0.000000 0.000000 0.000000 0.000000 0.000000 10.000000 
L_front_hand03_01 0.000000 0.000000 0.000000 0.000000 0.000000 0.000000 10.000000 
L_front_hand01_02 0.000000 0.000000 0.000000 0.000000 0.000000 0.000000 10.000000 
L_front_hand02_02 0.000000 0.000000 0.000000 0.000000 0.000000 0.000000 10.000000 
L_front_hand03_02 0.000000 0.000000 0.000000 0.000000 0.000000 0.000000 10.000000 
R_forearm 0.000000 0.000000 0.000000 0.000000 0.000000 0.000000 10.000000 
R_front_hand 0.000000 0.000000 0.000000 0.000000 0.000000 0.000000 10.000000 
R_weapon_bone 0.000000 0.000000 0.000000 0.000000 0.000000 0.000000 10.000000 
R_front_hand01_01 0.000000 0.000000 0.000000 0.000000 0.000000 0.000000 10.000000 
R_front_hand02_01 0.000000 0.000000 0.000000 0.000000 0.000000 0.000000 10.000000 
R_front_hand03_01 0.000000 0.000000 0.000000 0.000000 0.000000 0.000000 10.000000 
R_front_hand01_02 0.000000 0.000000 0.000000 0.000000 0.000000 0.000000 10.000000 
R_front_hand02_02 0.000000 0.000000 0.000000 0.000000 0.000000 0.000000 10.000000 
R_front_hand03_02 0.000000 0.000000 0.000000 0.000000 0.000000 0.000000 10.000000 
null_rope01_connect 0.000000 0.000000 0.000000 0.000000 0.000000 0.000000 10.000000 
Rope1_Seg01 0.000000 0.000000 0.000000 0.000000 0.000000 0.000000 10.000000 
Rope1_Seg02 0.000000 0.000000 0.000000 0.000000 0.000000 0.000000 10.000000 
Rope1_Seg03 0.000000 0.000000 0.000000 0.000000 0.000000 0.000000 10.000000 
Rope1_Seg04 0.000000 0.000000 0.000000 0.000000 0.000000 0.000000 10.000000 
Rope1_Seg05 0.000000 0.000000 0.000000 0.000000 0.000000 0.000000 10.000000 
Rope1_Seg06 0.000000 0.000000 0.000000 0.000000 0.000000 0.000000 10.000000 
Rope1_Seg07 0.000000 0.000000 0.000000 0.000000 0.000000 0.000000 10.000000 
Rope1_Seg09 0.000000 0.000000 0.000000 0.000000 0.000000 0.000000 10.000000 
L_mid_hand01 0.000000 0.000000 0.000000 0.000000 0.000000 0.000000 10.000000 
L_mid_hand02 0.000000 0.000000 0.000000 0.000000 0.000000 0.000000 10.000000 
L_mid_hand03 0.000000 0.000000 0.000000 0.000000 0.000000 0.000000 10.000000 
null_rope02_connect 0.000000 0.000000 0.000000 0.000000 0.000000 0.000000 10.000000 
Rope2_Seg01 0.000000 0.000000 0.000000 0.000000 0.000000 0.000000 10.000000 
Rope2_Seg02 0.000000 0.000000 0.000000 0.000000 0.000000 0.000000 10.000000 
Rope2_Seg03 0.000000 0.000000 0.000000 0.000000 0.000000 0.000000 10.000000 
Rope2_Seg04 0.000000 0.000000 0.000000 0.000000 0.000000 0.000000 10.000000 
Rope2_Seg05 0.000000 0.000000 0.000000 0.000000 0.000000 0.000000 10.000000 
Rope2_Seg06 0.000000 0.000000 0.000000 0.000000 0.000000 0.000000 10.000000 
Rope2_Seg07 0.000000 0.000000 0.000000 0.000000 0.000000 0.000000 10.000000 
Rope2_Seg09 0.000000 0.000000 0.000000 0.000000 0.000000 0.000000 10.000000 
R_mid_hand01 0.000000 0.000000 0.000000 0.000000 0.000000 0.000000 10.000000 
R_mid_hand02 0.000000 0.000000 0.000000 0.000000 0.000000 0.000000 10.000000 
R_mid_hand03 0.000000 0.000000 0.000000 0.000000 0.000000 0.000000 10.000000 
spine02 0.000000 0.000000 0.000000 0.000000 0.000000 0.000000 10.000000 
spine03 0.000000 0.000000 0.000000 0.000000 0.000000 0.000000 10.000000 
pelvis 0.000000 0.000000 0.000000 0.000000 0.000000 0.000000 10.000000 
null_rope03_connect 0.000000 0.000000 0.000000 0.000000 0.000000 0.000000 10.000000 
null_rope04_connect 0.000000 0.000000 0.000000 0.000000 0.000000 0.000000 10.000000 
Rope3_Seg01 0.000000 0.000000 0.000000 0.000000 0.000000 0.000000 10.000000 
Rope3_Seg02 0.000000 0.000000 0.000000 0.000000 0.000000 0.000000 10.000000 
Rope3_Seg03 0.000000 0.000000 0.000000 0.000000 0.000000 0.000000 10.000000 
Rope3_Seg04 0.000000 0.000000 0.000000 0.000000 0.000000 0.000000 10.000000 
Rope3_Seg05 0.000000 0.000000 0.000000 0.000000 0.000000 0.000000 10.000000 
Rope3_Seg06 0.000000 0.000000 0.000000 0.000000 0.000000 0.000000 10.000000 
Rope3_Seg07 0.000000 0.000000 0.000000 0.000000 0.000000 0.000000 10.000000 
Rope3_Seg08 0.000000 0.000000 0.000000 0.000000 0.000000 0.000000 10.000000 
Rope3_Seg09 0.000000 0.000000 0.000000 0.000000 0.000000 0.000000 10.000000 
R_rear_hand01 0.000000 0.000000 0.000000 0.000000 0.000000 0.000000 10.000000 
R_rear_hand02 0.000000 0.000000 0.000000 0.000000 0.000000 0.000000 10.000000 
R_rear_hand03 0.000000 0.000000 0.000000 0.000000 0.000000 0.000000 10.000000 
Rope4_Seg01 0.000000 0.000000 0.000000 0.000000 0.000000 0.000000 10.000000 
Rope4_Seg02 0.000000 0.000000 0.000000 0.000000 0.000000 0.000000 10.000000 
Rope4_Seg03 0.000000 0.000000 0.000000 0.000000 0.000000 0.000000 10.000000 
Rope4_Seg04 0.000000 0.000000 0.000000 0.000000 0.000000 0.000000 10.000000 
Rope4_Seg05 0.000000 0.000000 0.000000 0.000000 0.000000 0.000000 10.000000 
Rope4_Seg06 0.000000 0.000000 0.000000 0.000000 0.000000 0.000000 10.000000 
Rope4_Seg07 0.000000 0.000000 0.000000 0.000000 0.000000 0.000000 10.000000 
Rope4_Seg08 0.000000 0.000000 0.000000 0.000000 0.000000 0.000000 10.000000 
Rope4_Seg09 0.000000 0.000000 0.000000 0.000000 0.000000 0.000000 10.000000 
L_rear_hand01 0.000000 0.000000 0.000000 0.000000 0.000000 0.000000 10.000000 
L_rear_hand02 0.000000 0.000000 0.000000 0.000000 0.000000 0.000000 10.000000 
L_rear_hand03 0.000000 0.000000 0.000000 0.000000 0.000000 0.000000 10.000000 
#Beginning of Data. Separated by tabs
#Fr	Tx	Ty	Tz	Rx	Ry	Rz	SF
[MASTER]
6 -801.756714 1431.345459 979.892395 0.001660 0.001660 0.001660 1910.956055
7 -967.215698 1711.231323 1154.897095 0.001660 0.001660 0.001660 2279.825928
[root]
6 -20.962833 -8.660439 1459.648926 -75.197968 -12.665423 -95.151855 1459.825195
7 -22.612150 -12.662506 1463.837891 -69.751488 -13.090505 -97.027336 1464.067261
[chest]
6 -84.512650 -34.090519 0.000000 10.091050 2.165542 157.410614 91.129311
7 -84.512650 -34.090519 0.000000 12.965136 3.022635 155.378189 91.129311
[L_mid_tent01]
6 27.299019 22.179222 -249.918777 -4.120673 13.598489 56.769508 252.381744
7 27.299006 22.179214 -249.918808 -0.948954 12.431754 65.450302 252.381775
[R_mid_tent01]
6 23.228794 24.509907 226.238495 172.371231 -8.239893 59.147854 228.744751
7 23.228794 24.509907 226.238495 169.180984 -6.026978 65.250267 228.744751
[spine01]
6 -0.361383 -0.195265 0.000000 0.002037 0.001166 30.407234 0.410763
7 -0.361383 -0.195265 0.000000 0.002050 0.001143 31.695620 0.410763
[Bip01_Neck]
6 165.484543 71.581718 0.000119 176.643677 -1.657967 43.431911 180.302734
7 165.484543 71.581718 0.000119 176.643677 -1.657966 43.431908 180.302734
[L_humerus]
6 -13.983130 -135.272980 -120.471481 -6.615113 65.460449 83.295097 181.680161
7 -13.983130 -135.272980 -120.471481 -6.736153 65.012352 83.155907 181.680161
[R_humerus]
6 -13.983309 -135.273102 125.287651 26.255243 -66.323738 69.444588 184.909012
7 -13.983309 -135.273102 125.287651 26.072714 -65.855179 69.635559 184.909012
[weapon_bone]
6 235.964890 -300.705902 0.000000 0.000000 -89.951546 -128.212341 382.234833
7 235.964890 -300.705902 0.000000 0.000000 -89.951546 -128.212341 382.234833
[Bip01_Head]
6 213.432617 185.747223 11.366731 4.987259 10.061256 -43.762226 283.169037
7 213.446030 185.709839 11.846542 4.985157 9.836426 -43.769676 283.174316
[eye_left_bone]
6 -24.626970 125.451866 -64.772606 0.000000 -90.000000 -99.840431 143.318359
7 -24.626970 125.451866 -64.772606 0.000000 -90.000000 -99.840431 143.318359
[eye_right_bone]
6 -24.626970 125.451866 64.327362 0.000000 -89.980217 80.156380 143.117676
7 -24.626970 125.451866 64.327362 0.000000 -89.965736 80.156380 143.117676
[L_forearm]
6 322.776093 0.000000 -0.000119 0.000419 -0.002309 -110.579201 322.776093
7 322.776093 0.000000 -0.000119 0.000422 -0.002309 -110.720451 322.776093
[L_front_hand]
6 241.149185 -0.042021 -3.300071 -178.667953 -1.835447 -27.422350 241.171753
7 241.149185 -0.042021 -3.300071 -178.667953 -1.835447 -27.422342 241.171753
[L_weapon_bone]
6 156.183838 0.000000 0.000000 0.000014 0.000007 0.000001 156.183838
7 156.183838 0.000000 0.000000 0.000014 0.000007 0.000001 156.183838
[L_front_hand01_01]
6 86.095154 20.947098 -0.655860 -0.349230 -0.490139 73.139862 88.609184
7 86.095154 20.947098 -0.655860 -0.335131 -0.500211 71.723785 88.609184
[L_front_hand02_01]
6 86.935165 -11.437475 24.513514 151.025055 -58.854893 -57.448074 91.046425
7 86.935165 -11.437475 24.513514 149.028946 -58.148323 -55.100948 91.046425
[L_front_hand03_01]
6 86.637497 -14.123976 -20.424902 -150.781433 57.074539 -58.996449 90.126129
7 86.637497 -14.123976 -20.424902 -148.918808 56.366669 -56.764694 90.126129
[L_front_hand01_02]
6 71.020905 -0.000179 0.000030 0.000318 -0.002326 -105.574486 71.020905
7 71.020905 -0.000179 0.000030 0.000317 -0.002326 -105.537254 71.020905
[L_front_hand02_02]
6 71.020927 -0.000119 0.000060 0.000318 -0.002326 -105.574486 71.020927
7 71.020927 -0.000119 0.000060 0.000317 -0.002326 -105.537254 71.020927
[L_front_hand03_02]
6 71.020905 -0.000060 0.000060 0.000318 -0.002326 -105.574486 71.020905
7 71.020905 -0.000060 0.000060 0.000317 -0.002326 -105.537254 71.020905
[R_forearm]
6 322.776428 -0.000060 0.000030 0.201428 0.067216 -109.231773 322.776428
7 322.776428 -0.000060 0.000030 0.201335 0.067493 -109.389412 322.776428
[R_front_hand]
6 238.847015 -0.006795 2.210259 -2.635298 -10.645461 -26.312504 238.857239
7 238.847015 -0.006795 2.210259 -2.635299 -10.645460 -26.312500 238.857239
[R_weapon_bone]
6 155.664093 0.002503 -0.000030 0.003487 0.001180 -90.988930 155.664078
7 155.664093 0.002503 -0.000030 0.003487 0.001180 -90.988930 155.664078
[R_front_hand01_01]
6 87.624611 14.231146 22.918642 -151.601074 -59.040489 58.224773 91.683487
7 87.624611 14.231146 22.918642 -149.707169 -58.394512 56.007454 91.683487
[R_front_hand02_01]
6 89.356956 14.367283 -19.491137 151.761566 57.399368 60.393955 92.579636
7 89.356956 14.367283 -19.491137 149.983459 56.758793 58.275940 92.579636
[R_front_hand03_01]
6 87.286232 -22.307278 -0.143439 0.146836 -0.431871 -73.769867 90.091743
7 87.286232 -22.307278 -0.143439 0.134949 -0.432464 -72.452232 90.091743
[R_front_hand01_02]
6 71.020905 0.000060 0.000119 0.002323 -0.000334 106.381714 71.020905
7 71.020905 0.000060 0.000119 0.002323 -0.000334 106.381706 71.020905
[R_front_hand02_02]
6 71.020844 -0.000030 -0.000119 0.002323 -0.000334 106.381714 71.020836
7 71.020844 -0.000030 -0.000119 0.002323 -0.000334 106.381706 71.020836
[R_front_hand03_02]
6 71.020905 0.000000 0.000030 0.002323 -0.000334 106.381714 71.020905
7 71.020905 0.000000 0.000030 0.002323 -0.000334 106.381706 71.020905
[null_rope01_connect]
6 328.732483 0.000000 -0.000238 -77.198387 -81.046959 122.187233 328.732483
7 328.732483 0.000000 -0.000238 -44.738461 -76.918030 82.091713 328.732483
[Rope1_Seg01]
6 0.000000 0.000000 0.000000 -25.234413 26.347414 -46.156628 0.000000
7 0.000000 0.000000 0.000000 -23.137094 27.147144 -39.222446 0.000000
[Rope1_Seg02]
6 139.999863 -0.000179 0.000000 1.570162 4.149850 -9.599238 139.999863
7 139.999863 -0.000179 0.000000 0.886465 2.525142 -6.611524 139.999863
[Rope1_Seg03]
6 139.999924 0.000060 -0.000060 4.510579 5.330069 -14.015526 139.999924
7 139.999924 0.000060 -0.000060 1.975037 3.346171 -9.417974 139.999924
[Rope1_Seg04]
6 139.999924 -0.000060 -0.000119 15.651934 5.192895 -18.827858 139.999924
7 139.999924 -0.000060 -0.000119 9.574295 4.644806 -19.643797 139.999924
[Rope1_Seg05]
6 139.999832 0.000119 -0.000060 -6.295726 1.046255 3.853071 139.999832
7 139.999832 0.000119 -0.000060 0.823899 3.142775 -4.499084 139.999832
[Rope1_Seg06]
6 139.999954 0.000119 -0.000060 -5.052768 0.141731 4.407400 139.999954
7 139.999954 0.000119 -0.000060 -7.704819 2.015050 6.373897 139.999954
[Rope1_Seg07]
6 139.999985 0.000060 0.000000 -1.036261 0.093671 0.876242 139.999985
7 139.999985 0.000060 0.000000 -1.466722 0.744625 0.852774 139.999985
[Rope1_Seg09]
6 121.602913 0.000119 -0.000089 -89.793175 -1.359789 0.847147 121.602913
7 121.602913 0.000119 -0.000089 -89.793175 -1.359789 0.847147 121.602913
[L_mid_hand01]
6 103.859421 1.038730 8.195221 112.493240 -49.600185 -18.031643 104.187431
7 103.859421 1.038730 8.195221 110.549706 -45.072773 -15.392938 104.187431
[L_mid_hand02]
6 105.572853 -4.139662 -10.864139 -152.303986 36.371010 -47.886745 106.211075
7 105.572853 -4.139662 -10.864139 -149.303925 33.991974 -42.687023 106.211075
[L_mid_hand03]
6 104.641464 17.579376 -3.913581 -12.027911 14.512395 53.523804 106.179977
7 104.641464 17.579376 -3.913581 -13.209491 13.449579 48.630810 106.179977
[null_rope02_connect]
6 328.732849 0.000179 -0.000119 -147.244781 72.395149 -13.398250 328.732849
7 328.732849 0.000179 -0.000119 -149.403275 69.984192 -11.103869 328.732849
[Rope2_Seg01]
6 0.000043 0.000134 0.000000 107.918205 31.156431 -111.164459 0.000140
7 0.000044 0.000130 0.000000 111.000908 39.018433 -112.901817 0.000137
[Rope2_Seg02]
6 139.999741 -0.000060 -0.000119 -0.851609 18.696049 -9.683085 139.999756
7 139.999741 -0.000060 -0.000119 0.456143 14.310220 -8.827432 139.999756
[Rope2_Seg03]
6 140.000107 0.000030 0.000000 14.274642 24.383133 -17.149220 140.000107
7 140.000107 0.000030 0.000000 8.003633 19.321625 -14.956795 140.000107
[Rope2_Seg04]
6 139.999802 0.000000 -0.000060 57.319687 8.066535 -7.927543 139.999802
7 139.999802 0.000000 -0.000060 82.759583 15.744848 -19.911409 139.999802
[Rope2_Seg05]
6 139.999985 -0.000060 0.000119 -88.294258 15.301338 22.527678 139.999985
7 139.999985 -0.000060 0.000119 -84.957146 13.264264 5.003453 139.999985
[Rope2_Seg06]
6 139.999893 -0.000030 -0.000119 -6.060477 -19.508301 13.339244 139.999893
7 139.999893 -0.000030 -0.000119 -36.235214 -13.572245 32.881721 139.999893
[Rope2_Seg07]
6 139.999893 0.000060 -0.000060 -1.075356 -7.113777 4.400611 139.999893
7 139.999893 0.000060 -0.000060 -2.878898 -10.360825 7.714302 139.999893
[Rope2_Seg09]
6 121.338966 0.000089 -0.000060 33.793236 -1.359788 -0.847141 121.338966
7 121.338966 0.000089 -0.000060 33.793236 -1.359788 -0.847141 121.338966
[R_mid_hand01]
6 104.680779 11.144459 -10.335981 -25.740593 41.350704 56.606117 105.778534
7 104.680779 11.144459 -10.335981 -28.447895 39.731529 52.443096 105.778534
[R_mid_hand02]
6 104.070427 2.443552 8.231699 61.361111 -58.825871 25.577074 104.424065
7 104.070427 2.443552 8.231699 63.902641 -55.672291 22.558332 104.424065
[R_mid_hand03]
6 106.028137 -11.221827 -5.996406 -174.179749 14.727765 -65.439743 106.788818
7 106.028137 -11.221827 -5.996406 -173.262527 14.339042 -61.789948 106.788818
[spine02]
6 129.756927 0.001550 0.000119 0.478034 -4.031582 -14.589011 129.756927
7 129.756927 0.001550 0.000119 0.490683 -4.030020 -14.808994 129.756927
[spine03]
6 78.614128 0.081768 -4.899037 1.963992 3.798851 17.515518 78.766678
7 78.614143 0.081764 -4.899045 1.972745 3.793459 17.643412 78.766685
[pelvis]
6 169.435242 0.051022 0.000000 -0.068670 -0.178384 16.198400 169.435257
7 169.435242 0.051022 0.000000 -0.069105 -0.178216 16.478197 169.435257
[null_rope03_connect]
6 -1.257226 -2.466202 137.391083 -6.709653 -74.200615 60.514706 137.418976
7 -1.257226 -2.466202 137.391083 -6.019661 -68.914810 59.336933 137.418976
[null_rope04_connect]
6 -1.259640 -2.480268 -137.844437 -6.709653 -74.200615 60.514706 137.872513
7 -1.259640 -2.480268 -137.844437 -6.019661 -68.914810 59.336933 137.872513
[Rope3_Seg01]
6 0.000018 -0.000010 -0.000153 -153.004120 36.216244 -111.062561 0.000154
7 0.000018 -0.000027 -0.000153 -156.317780 41.501877 -110.440971 0.000156
[Rope3_Seg02]
6 139.999924 -0.000119 0.000060 0.032374 -8.054408 -9.953767 139.999924
7 139.999924 -0.000119 0.000060 0.595055 -6.766761 -10.178478 139.999924
[Rope3_Seg03]
6 139.999924 -0.000119 0.000119 0.495537 -8.738537 -10.930192 139.999924
7 139.999924 -0.000119 0.000119 0.650493 -7.090138 -10.523692 139.999924
[Rope3_Seg04]
6 139.999924 0.000119 0.000000 1.499601 -11.921045 -14.509647 139.999924
7 139.999924 0.000119 0.000000 1.394055 -11.072321 -14.647576 139.999924
[Rope3_Seg05]
6 139.999924 -0.000238 0.000060 0.050823 0.036689 -0.923181 139.999924
7 139.999924 -0.000238 0.000060 0.094765 -1.855849 -3.913186 139.999924
[Rope3_Seg06]
6 139.999893 -0.000119 -0.000060 1.143562 9.868587 10.026569 139.999893
7 139.999893 -0.000119 -0.000060 0.568735 8.328307 7.233151 139.999893
[Rope3_Seg07]
6 139.999771 0.000060 -0.000119 1.196098 6.733597 6.630429 139.999771
7 139.999771 0.000060 -0.000119 1.426347 9.300248 8.446976 139.999771
[Rope3_Seg08]
6 139.999985 -0.000060 0.000000 0.896849 3.229419 2.961313 139.999985
7 139.999985 -0.000060 0.000000 1.013237 4.105512 3.220629 139.999985
[Rope3_Seg09]
6 90.185997 -0.000179 -0.000060 89.793228 -1.359877 -0.847183 90.185997
7 90.185997 -0.000179 -0.000060 89.793228 -1.359877 -0.847183 90.185997
[R_rear_hand01]
6 103.366196 -6.073594 -10.757982 -171.684540 23.302565 -59.125771 104.101845
7 103.366196 -6.073594 -10.757982 -169.896027 22.621880 -54.548431 104.101845
[R_rear_hand02]
6 100.509819 12.039542 -7.992327 -21.930750 32.777496 56.381863 101.543350
7 100.509819 12.039542 -7.992327 -24.381289 31.099262 51.752331 101.543350
[R_rear_hand03]
6 101.539970 5.215704 5.435467 79.009171 -58.663548 13.282337 101.819031
7 101.539970 5.215704 5.435467 80.187729 -54.464619 11.876325 101.819031
[Rope4_Seg01]
6 0.000007 -0.000186 -0.000153 71.492714 38.917271 -71.206627 0.000241
7 0.000007 -0.000216 -0.000153 76.659134 35.734039 -60.475883 0.000264
[Rope4_Seg02]
6 139.999985 0.000060 0.000119 0.319658 -7.728079 -3.678798 139.999985
7 139.999985 0.000060 0.000119 1.858053 -10.105011 -6.700927 139.999985
[Rope4_Seg03]
6 139.999924 0.000000 -0.000238 0.292385 -6.920972 -3.331204 139.999924
7 139.999924 0.000000 -0.000238 1.076034 -8.303289 -5.359557 139.999924
[Rope4_Seg04]
6 139.999985 0.000000 0.000119 0.895316 -11.011960 -6.373279 139.999985
7 139.999985 0.000000 0.000119 1.523351 -10.820610 -8.113149 139.999985
[Rope4_Seg05]
6 139.999802 -0.000060 -0.000119 0.095865 -3.019702 -1.133840 139.999802
7 139.999802 -0.000060 -0.000119 0.115844 -2.707713 -1.272502 139.999802
[Rope4_Seg06]
6 139.999924 0.000000 0.000060 0.229032 7.140297 5.627609 139.999924
7 139.999924 0.000000 0.000060 -0.067429 4.977294 5.361927 139.999924
[Rope4_Seg07]
6 139.999802 0.000000 0.000000 0.043305 12.202082 9.192914 139.999802
7 139.999802 0.000000 0.000000 -0.770233 11.939388 11.987451 139.999802
[Rope4_Seg08]
6 139.999924 0.000000 0.000119 -2.223850 5.349625 4.330912 139.999924
7 139.999924 0.000000 0.000119 -3.487666 6.264676 6.970966 139.999924
[Rope4_Seg09]
6 90.185791 0.000060 0.000060 -135.617828 2.228885 0.850567 90.185791
7 90.185791 0.000060 0.000060 -135.617828 2.228885 0.850567 90.185791
[L_rear_hand01]
6 101.696655 -8.392275 -7.654577 -30.719053 -24.879360 141.681381 102.329041
7 101.696655 -8.392275 -7.654577 -31.684452 -23.583008 144.025742 102.329041
[L_rear_hand02]
6 102.726799 -1.568258 5.773216 82.428497 41.230476 171.131027 102.900848
7 102.726799 -1.568258 5.773216 82.701553 38.753956 171.553619 102.900848
[L_rear_hand03]
6 104.552910 9.721220 -10.420293 -164.822937 -19.676035 -139.457687 105.519653
7 104.552910 9.721220 -10.420293 -163.975403 -19.004421 -142.009338 105.519653
